<svg width="60" height="60" viewBox="0 0 60 60" fill="none" xmlns="http://www.w3.org/2000/svg">
<circle cx="30" cy="30" r="29.5" stroke="#DEE3EE"/>
<path d="M27 26H39" stroke="#D93A31" stroke-width="2" stroke-miterlimit="10" stroke-linecap="round" stroke-linejoin="round"/>
<path d="M20 20H21.74C22.82 20 23.67 20.93 23.58 22L22.75 31.96C22.61 33.59 23.9 34.99 25.54 34.99H36.19C37.63 34.99 38.89 33.81 39 32.38L39.54 24.88C39.66 23.22 38.4 21.87 36.73 21.87H23.82" stroke="#2B2B35" stroke-width="2" stroke-miterlimit="10" stroke-linecap="round" stroke-linejoin="round"/>
<path d="M34.25 40C34.9404 40 35.5 39.4404 35.5 38.75C35.5 38.0596 34.9404 37.5 34.25 37.5C33.5596 37.5 33 38.0596 33 38.75C33 39.4404 33.5596 40 34.25 40Z" stroke="#2B2B35" stroke-width="2" stroke-miterlimit="10" stroke-linecap="round" stroke-linejoin="round"/>
<path d="M26.25 40C26.9404 40 27.5 39.4404 27.5 38.75C27.5 38.0596 26.9404 37.5 26.25 37.5C25.5596 37.5 25 38.0596 25 38.75C25 39.4404 25.5596 40 26.25 40Z" stroke="#2B2B35" stroke-width="2" stroke-miterlimit="10" stroke-linecap="round" stroke-linejoin="round"/>
</svg>
