<svg width="100" height="100" viewBox="0 0 100 100" fill="none" xmlns="http://www.w3.org/2000/svg">
<rect width="100" height="100" rx="50" fill="#D93A31"/>
<path d="M82.8985 37.1659C82.4728 37.3608 82.047 37.801 81.9244 38.1834C81.8738 38.3277 81.8522 38.6525 81.8666 38.905C81.9821 40.7451 84.4717 41.142 85.2366 39.4462C85.4242 39.0349 85.4242 38.6164 85.2438 38.1257C84.8902 37.1804 83.815 36.733 82.8985 37.1659Z" fill="white"/>
<path d="M87.1416 37.1298C86.1963 37.5628 86.1963 39.0205 87.1416 39.4534C87.8199 39.7565 88.5487 39.5112 88.8951 38.8545C89.0972 38.4576 88.9961 37.7721 88.6859 37.4401C88.2818 37.0072 87.6828 36.8845 87.1416 37.1298ZM88.3323 37.4113C89.1477 37.9958 88.7364 39.3741 87.7405 39.3741C87.4447 39.3741 87.0261 39.172 86.853 38.9483C86.4416 38.4143 86.687 37.5556 87.3364 37.2886C87.5962 37.1731 88.0869 37.2381 88.3323 37.4113Z" fill="white"/>
<path d="M87.12 38.3278C87.12 38.8762 87.1416 39.0133 87.221 39.0133C87.2932 39.0133 87.3364 38.9195 87.3509 38.7391C87.3797 38.3422 87.6107 38.335 87.8632 38.7247C87.9715 38.8834 88.1086 39.0133 88.1663 39.0133C88.3178 39.0133 88.3034 38.9556 88.0869 38.6742L87.8993 38.4216L88.0508 38.3206C88.2168 38.1979 88.2529 37.866 88.1158 37.7288C88.0653 37.6783 87.8344 37.6423 87.5746 37.6423H87.12V38.3278ZM87.9426 37.9525C88.0436 38.1113 87.9065 38.2195 87.6034 38.2195C87.3942 38.2195 87.2932 38.0824 87.3653 37.8876C87.423 37.7361 87.8344 37.7794 87.9426 37.9525Z" fill="white"/>
<path d="M47.9146 39.6988C47.6909 39.7565 47.4094 39.8503 47.3012 39.9081C47.0703 40.0308 46.7456 40.4204 46.6301 40.7235C46.5435 40.9472 46.2765 42.4193 46.2765 42.6719V42.8378H52.5906C58.1831 42.8378 58.9336 42.8523 59.1862 42.9533C59.5542 43.0976 59.6985 43.3213 59.6985 43.7543C59.6985 44.1945 59.5109 44.5048 59.1501 44.6852C58.8831 44.8151 58.6017 44.8223 53.1318 44.8583L47.395 44.8944L46.9837 45.0965C46.3847 45.3923 46.1177 45.7964 45.9879 46.6119C45.9301 46.9943 45.4827 52.8105 45.4827 53.2218C45.4827 53.3734 45.5116 53.3734 47.4672 53.3734H49.4444L49.4805 53.1353C49.5021 53.0126 49.5887 51.8652 49.6681 50.6024C49.7547 49.3324 49.8413 48.2499 49.8629 48.1994C49.8918 48.12 50.2815 48.1056 51.8618 48.12L53.8174 48.1417L57.1512 52.0384C58.9841 54.1816 60.7088 56.1949 60.983 56.5124C61.9139 57.5948 62.5417 57.869 64.1148 57.8763C64.6127 57.8835 65.0457 57.8618 65.0745 57.833C65.1034 57.8041 63.2921 55.6465 61.0551 53.0342C58.8181 50.422 56.9564 48.2427 56.9275 48.1922C56.8914 48.1273 56.9492 48.1056 57.1512 48.1056C57.4543 48.1056 57.3677 48.0118 62.621 54.2032C65.1539 57.1835 65.4931 57.5082 66.3734 57.7392C66.9507 57.8907 68.3579 57.9701 68.3579 57.8546C68.3579 57.7824 67.1239 56.2743 66.0487 55.0331C65.6879 54.6218 62.5128 50.8477 60.8603 48.8633L60.2542 48.1489L60.8603 48.0262C62.3685 47.7232 63.054 47.0881 63.2272 45.8325C63.3571 44.9449 63.5375 41.8492 63.487 41.5245C63.3643 40.8101 62.7654 40.0885 62.0365 39.7998L61.6108 39.6266L54.9719 39.6122C49.466 39.605 48.2609 39.6194 47.9146 39.6988Z" fill="white"/>
<path d="M38.7719 39.7133C36.1813 39.9731 34.4566 40.3844 32.5732 41.171C31.2094 41.741 29.3765 42.8812 27.9621 44.043C26.9446 44.8728 24.8592 46.9583 23.0768 48.9355C21.4748 50.7107 19.2234 52.991 18.242 53.8425C16.6977 55.1775 14.9225 56.3826 13.2267 57.2557C12.6495 57.5516 12.166 57.8041 12.1515 57.8186C12.1371 57.833 15.1029 57.8474 18.7543 57.8474L25.3859 57.8402L26.7209 56.1372C28.6043 53.7342 29.4919 52.6735 30.5022 51.656C33.1072 49.0077 35.3803 47.8314 38.4327 47.5644L38.9883 47.5139V46.5181C38.9883 44.9233 39.2265 43.3935 39.6883 41.9792C39.8254 41.5606 40.28 40.5359 40.7058 39.7133C40.7347 39.6628 39.277 39.6628 38.7719 39.7133Z" fill="white"/>
<path d="M67.0737 41.4956C66.0273 41.842 64.9738 42.7224 64.4903 43.6749C64.1872 44.2811 64.1367 44.6419 63.913 48.0262C63.7687 50.2199 63.7976 50.5374 64.2233 51.4106C64.5408 52.0601 65.1253 52.6662 65.7531 52.9981C66.6046 53.4528 66.316 53.4455 75.7042 53.4455C80.3947 53.4455 84.2337 53.4383 84.2337 53.4239C84.2625 53.2363 84.4501 50.9632 84.4501 50.79V50.5519L76.3031 50.5663C68.4231 50.5807 68.1489 50.5735 67.918 50.4436C67.4922 50.1911 67.384 49.9674 67.384 49.3468V48.7911L73.2651 48.7551C79.8462 48.7118 79.4205 48.7478 79.9112 48.1922C80.3297 47.7232 80.3442 47.6293 80.5173 45.2841C80.6256 43.7976 80.5967 43.4945 80.3442 42.9894C80.1421 42.5997 79.2257 41.7698 78.7566 41.5461L78.3525 41.3585L72.9765 41.3441L67.6005 41.3297L67.0737 41.4956ZM76.7072 44.3749C77.068 44.5697 77.1546 44.8078 77.1041 45.4356L77.0536 45.9768L72.3487 45.9985L67.6365 46.0129V45.5944C67.6365 45.0099 67.8602 44.5914 68.286 44.3749L68.6035 44.2017L72.5435 44.2233C76.1444 44.245 76.498 44.2522 76.7072 44.3749Z" fill="white"/>
<path d="M81.7006 41.3369C81.6934 41.373 81.4336 44.8439 81.3182 46.4459C81.2532 47.2974 81.1883 48.1706 81.1666 48.3726L81.1306 48.7551H82.8841H84.6448L84.6953 47.9396C84.7242 47.4995 84.8252 46.0923 84.919 44.8223C85.0201 43.5522 85.1139 42.2461 85.1427 41.9142L85.186 41.3224H83.4469C82.4872 41.3224 81.7078 41.3297 81.7006 41.3369Z" fill="white"/>
<path d="M37.8049 49.051C36.672 49.2169 35.3947 49.6716 34.3845 50.2633C32.6887 51.2519 31.2671 52.6807 29.2249 55.4661C28.626 56.2815 27.9765 57.1475 27.7817 57.3928L27.4281 57.8474H35.8277L44.22 57.8402L43.8953 57.5804C43.2314 57.0465 41.8965 55.6249 41.4707 54.9971C40.4027 53.4384 39.5512 51.3529 39.2553 49.5705L39.1615 49.0077L38.6925 49.0005C38.4399 48.9932 38.043 49.0149 37.8049 49.051Z" fill="white"/>
<path d="M12.4618 59.2473C12.0144 59.4422 12 59.5143 12 61.3328C12 63.1729 12.0289 63.2956 12.4618 63.5048C12.6639 63.5987 12.9742 63.6203 14.3308 63.6203C15.8967 63.6203 15.9544 63.6131 16.1926 63.4543C16.5822 63.1945 16.6328 62.9348 16.6039 61.2245C16.575 59.0741 16.6544 59.1463 14.3092 59.1535C13.1041 59.1535 12.6278 59.1752 12.4618 59.2473ZM15.7885 61.3833V62.7904L14.2947 62.8121L12.7938 62.8265V61.3833V59.9401L14.2947 59.9545L15.7885 59.9762V61.3833Z" fill="white"/>
<path d="M19.1442 61.1163C19.1442 63.2667 19.1514 63.2884 19.5771 63.5121C19.8658 63.6636 22.211 63.6708 22.5574 63.5193C23.0264 63.3244 23.0409 63.2667 23.0409 61.0947V59.1391L22.6656 59.1607L22.2832 59.1824L22.2615 61.0081L22.2471 62.8265L21.0709 62.8121L19.9019 62.7905L19.8802 60.9648L19.8658 59.1463H19.505H19.1442V61.1163Z" fill="white"/>
<path d="M25.5953 59.2473C25.5736 59.3051 25.5664 59.471 25.5808 59.6226L25.6025 59.904L26.3818 59.9256L27.154 59.9473V61.7802V63.6203H27.5508H27.9477V61.7802V59.9473L28.7271 59.9256L29.4992 59.904V59.5432V59.1824L27.5653 59.1607C25.9561 59.1463 25.6314 59.1607 25.5953 59.2473Z" fill="white"/>
<path d="M32.0969 59.2401C32.0753 59.2907 32.0681 60.2865 32.0753 61.4555L32.0969 63.5843H33.8071H35.5102L35.6978 63.4111C36.0009 63.1224 36.0442 62.841 36.0153 61.2246C35.9864 59.0742 36.0586 59.1463 33.735 59.1463C32.5082 59.1463 32.1186 59.168 32.0969 59.2401ZM35.2215 61.3978L35.2359 62.8266H34.0453H32.8546V61.3833V59.9401L34.0308 59.9545L35.1999 59.9762L35.2215 61.3978Z" fill="white"/>
<path d="M38.938 59.2906C38.8153 59.3628 38.671 59.4927 38.6349 59.5721C38.5844 59.6587 38.5555 60.3442 38.5555 61.3977C38.5555 63.7358 38.4328 63.6203 40.8286 63.6203C43.2243 63.6203 43.1017 63.743 43.1017 61.3833C43.1017 59.9256 43.0872 59.6587 42.9862 59.5143C42.7553 59.1896 42.5027 59.1463 40.7781 59.1463C39.3132 59.1463 39.1472 59.1607 38.938 59.2906ZM42.3079 61.3833V62.8265H40.8286H39.3493V61.3833V59.9401H40.8286H42.3079V61.3833Z" fill="white"/>
<path d="M46.089 59.2618C45.6849 59.4566 45.6632 59.5793 45.6632 61.4266V63.1152L45.9014 63.3461L46.1323 63.5843H47.9363H49.7404L49.9713 63.3461L50.2094 63.1152L50.2311 61.4555C50.2599 59.0453 50.3609 59.1463 47.9219 59.1463C46.623 59.1463 46.2694 59.168 46.089 59.2618ZM49.4517 61.3833V62.8266L47.958 62.8121L46.457 62.7905L46.4354 61.4555C46.4281 60.7267 46.4354 60.0844 46.4498 60.0339C46.4787 59.9618 46.8323 59.9401 47.9724 59.9401H49.4517V61.3833Z" fill="white"/>
<path d="M52.8074 59.2402C52.7858 59.2907 52.7786 60.2865 52.7858 61.4555L52.8074 63.5843L53.1827 63.6059L53.5579 63.6276L53.5796 62.74L53.6012 61.8524H53.9259H54.2507L54.9362 62.7328L55.6217 63.6203H56.1485C56.4299 63.6203 56.6681 63.5987 56.6681 63.5698C56.6681 63.5482 56.3939 63.1585 56.0547 62.7111C55.7155 62.2637 55.4413 61.8813 55.4413 61.8596C55.4413 61.838 55.5929 61.8163 55.7877 61.8163C56.531 61.8163 56.7835 61.4194 56.7258 60.3009C56.6681 59.1896 56.5887 59.1463 54.4383 59.1463C53.2188 59.1463 52.8291 59.168 52.8074 59.2402ZM55.9104 60.5174V61.0586H54.7558H53.6012L53.5796 60.4958L53.5579 59.9401L54.7341 59.9546L55.9104 59.9762V60.5174Z" fill="white"/>
<path d="M62.6718 59.269C62.2533 59.4711 62.2244 59.6082 62.2244 61.4194V63.043L62.4698 63.3173L62.7151 63.5843H64.4398H66.1572L66.1789 62.2998L66.1933 61.0225H65.0748H63.9563V61.3833V61.7369L64.6635 61.7586L65.3634 61.7802L65.3851 62.2998L65.4067 62.8266H64.2089H63.0182V61.3833V59.9401L64.5913 59.9257L66.1572 59.904V59.5432V59.1824L64.5336 59.168C63.1481 59.1536 62.8739 59.168 62.6718 59.269Z" fill="white"/>
<path d="M68.9354 59.269C68.5241 59.4783 68.5024 59.5865 68.5024 61.3689C68.5024 63.1657 68.5313 63.2956 68.9643 63.5049C69.1808 63.6059 69.4478 63.6203 70.826 63.6059L72.4352 63.5842V63.2234V62.8626L70.8621 62.841L69.289 62.8265L69.3106 62.2998L69.3323 61.7802L70.8838 61.7441L72.4352 61.708L72.4569 61.3689L72.4785 61.0225L70.9054 61.0081L69.3323 60.9864L69.3106 60.4669L69.289 59.9401L70.8621 59.9257L72.4352 59.904V59.5432V59.1824L70.8116 59.1607C69.3828 59.1463 69.1591 59.1607 68.9354 59.269Z" fill="white"/>
<path d="M75.3795 59.2906C75.2568 59.3628 75.1125 59.4927 75.0764 59.572C75.0259 59.6586 74.997 60.4236 74.997 61.6647V63.6203H75.3578H75.7114L75.7331 62.877L75.7547 62.141L76.9309 62.1193L78.0999 62.1049V62.8626V63.6203H78.4968H78.8937V61.6503C78.8937 59.9473 78.8793 59.6586 78.7783 59.5143C78.5546 59.204 78.2731 59.1463 76.8949 59.1463C75.7475 59.1463 75.5887 59.1607 75.3795 59.2906ZM78.0999 60.6256V61.3111L76.9309 61.2967L75.7547 61.2751L75.7331 60.705C75.7186 60.3875 75.7258 60.0916 75.7475 60.0339C75.7764 59.9617 76.0433 59.9401 76.9454 59.9401H78.0999V60.6256Z" fill="white"/>
<path d="M81.4552 59.2402C81.4336 59.2907 81.4263 60.2865 81.4336 61.4555L81.4552 63.5843L81.8304 63.6059L82.2057 63.6276L82.2273 62.74L82.249 61.8524L82.5737 61.8307L82.8984 61.8091L83.584 62.7111L84.2695 63.6131L84.7963 63.6203C85.0777 63.6203 85.3158 63.5915 85.3158 63.5554C85.3158 63.5265 85.0416 63.1369 84.7025 62.6967C84.3633 62.2565 84.0891 61.874 84.0891 61.8524C84.0891 61.8307 84.2551 61.8163 84.4499 61.8163C85.1715 61.8163 85.388 61.4988 85.388 60.4813C85.388 59.6731 85.287 59.4061 84.9189 59.2474C84.5798 59.1103 81.5057 59.0958 81.4552 59.2402ZM84.5798 60.4958L84.5581 61.0586H83.4036H82.249L82.2273 60.5968C82.2129 60.3442 82.2201 60.0917 82.2418 60.0411C82.2706 59.9618 82.5304 59.9401 83.4396 59.9401H84.6014L84.5798 60.4958Z" fill="white"/>
</svg>
